<svg xmlns="http://www.w3.org/2000/svg" width="720" height="480" viewBox="0 0 720 480" fill="none">
  <defs>
    <linearGradient id="bg" x1="0" y1="0" x2="720" y2="480" gradientUnits="userSpaceOnUse">
      <stop stop-color="#3A3326"/>
      <stop offset="1" stop-color="#201B14"/>
    </linearGradient>
    <linearGradient id="panel" x1="0" y1="0" x2="480" y2="0" gradientUnits="userSpaceOnUse">
      <stop stop-color="#CDBA95" stop-opacity="0.25"/>
      <stop offset="1" stop-color="#CDBA95" stop-opacity="0.06"/>
    </linearGradient>
  </defs>

  <rect width="720" height="480" rx="0" fill="url(#bg)"/>
  <rect x="40" y="40" width="640" height="400" rx="0" stroke="#CDBA95" stroke-opacity="0.26"/>
  <rect x="76" y="96" width="420" height="26" rx="0" fill="url(#panel)"/>
  <rect x="76" y="138" width="360" height="16" rx="0" fill="#CDBA95" fill-opacity="0.25"/>
  <rect x="76" y="166" width="320" height="16" rx="0" fill="#CDBA95" fill-opacity="0.2"/>
  <rect x="76" y="194" width="274" height="16" rx="0" fill="#CDBA95" fill-opacity="0.16"/>

  <g opacity="0.75">
    <rect x="540" y="110" width="108" height="108" rx="0" fill="#CDBA95" fill-opacity="0.12"/>
    <path d="M564 198L589 168L607 186L628 159L648 198H564Z" fill="#CDBA95" fill-opacity="0.35"/>
    <circle cx="603" cy="141" r="10" fill="#CDBA95" fill-opacity="0.38"/>
  </g>

  <text x="76" y="284" fill="#E9D9BC" fill-opacity="0.9" font-family="monospace" font-size="20">MooMooCow Devlog</text>
  <text x="76" y="316" fill="#E9D9BC" fill-opacity="0.6" font-family="monospace" font-size="14">DEFAULT THUMBNAIL</text>
</svg>
